<?xml version="1.0" standalone="no"?>
<!DOCTYPE svg PUBLIC "-//W3C//DTD SVG 20010904//EN"
 "http://www.w3.org/TR/2001/REC-SVG-20010904/DTD/svg10.dtd">
<svg version="1.0" xmlns="http://www.w3.org/2000/svg"
 width="260.000000pt" height="260.000000pt" viewBox="0 0 260.000000 260.000000"
 preserveAspectRatio="xMidYMid meet">
<metadata>
Created by potrace 1.14, written by Peter Selinger 2001-2017
</metadata>
<g transform="translate(0.000000,260.000000) scale(0.100000,-0.100000)"
fill="#000000" stroke="none">
<path d="M0 1300 l0 -1300 1300 0 1300 0 0 799 0 799 -27 -13 c-16 -8 -41 -11
-57 -8 -29 6 -101 72 -157 144 -15 19 -53 52 -85 74 -33 21 -74 52 -92 67 -18
15 -37 28 -43 28 -6 0 -8 -29 -3 -83 8 -102 -21 -571 -43 -681 -12 -61 -14
-134 -12 -320 2 -133 0 -251 -4 -262 -11 -32 -57 -48 -90 -33 -34 15 -137 202
-137 247 0 31 38 72 66 72 11 0 14 26 14 124 0 68 6 159 14 202 13 72 24 209
42 525 4 72 3 119 -3 122 -12 8 -69 -46 -108 -103 -16 -24 -51 -67 -77 -97
-26 -29 -59 -70 -73 -92 -48 -72 -128 -77 -156 -9 -16 40 -1 71 89 175 38 44
88 105 110 134 22 30 52 65 67 79 15 14 36 41 46 60 11 19 33 53 50 75 16 22
37 55 45 73 29 64 110 68 159 9 29 -34 114 -104 237 -192 77 -56 113 -92 144
-144 9 -16 32 -36 50 -45 l34 -16 0 445 0 445 -1300 0 -1300 0 0 -1300z m1016
939 c41 -34 17 -119 -39 -143 -55 -24 -138 -46 -172 -46 -17 0 -58 -9 -91 -20
-32 -11 -68 -20 -80 -20 -40 0 -136 -40 -185 -75 -36 -27 -52 -47 -61 -77 -10
-35 -10 -43 2 -50 8 -4 56 -34 105 -65 110 -68 158 -93 183 -93 11 0 50 -11
86 -25 37 -14 86 -25 109 -25 24 0 83 -9 132 -19 50 -10 107 -22 128 -26 45
-7 118 -69 148 -125 11 -19 33 -53 49 -75 55 -75 69 -131 81 -322 5 -96 7
-189 3 -207 -14 -67 -146 -279 -202 -326 -21 -17 -61 -43 -90 -57 -49 -24 -67
-27 -207 -31 -136 -4 -158 -2 -214 17 -33 11 -68 21 -77 21 -8 0 -39 9 -67 21
-70 28 -111 43 -182 65 -92 29 -125 65 -164 178 -43 125 -45 180 -8 229 32 42
67 55 103 38 37 -17 50 -53 34 -100 -11 -36 -10 -46 11 -107 25 -71 41 -87
104 -103 22 -5 65 -19 95 -31 30 -12 100 -35 155 -52 93 -28 109 -30 217 -25
114 4 118 5 165 39 52 37 95 96 148 202 l34 68 -9 155 c-9 146 -11 158 -40
209 -17 29 -36 56 -41 60 -6 3 -19 26 -30 50 -10 25 -28 48 -41 54 -37 16
-222 50 -270 50 -23 0 -74 11 -113 24 -38 13 -100 34 -137 45 -37 11 -88 37
-114 56 -26 20 -80 54 -120 76 -101 56 -119 83 -118 179 1 103 25 154 101 212
74 58 122 82 203 102 36 9 95 26 131 36 36 11 81 20 100 20 35 1 119 27 154
48 22 13 70 9 91 -9z"/>
</g>
</svg>
